<svg xmlns="http://www.w3.org/2000/svg" width="218" height="54" viewBox="0 0 218 54"><path d="M77.938 35.848c-2.787.109-4.021-.162-4.207-3.232-.091-1.512.445-4.303 1.252-5.58.911-1.44 4.167-3.524 5.867-3.436 1.221.063 2.75.231 3.861-.429 1.947-1.16 3.293-3.863 3.222-6.11-.029-.95-.501-1.61-1.136-1.985-.034-.505-.148-.974-.375-1.36-1.425-2.433-5.074-2.479-7.526-2.479-3.012 0-7.349-.605-9.77 1.68-5.436 5.132-7.769 13.992-6.428 21.25 1.453 7.861 7.855 12.393 15.65 11.875 2.409-.16 6.745-.598 8.124-2.951 1.164-1.99.635-5.633-1.002-7.27-1.895-1.897-5.311-.059-7.532.027zm21-8.463c0-1.372.107-2.821-.394-3.978.229-1.356-.544-2.912-2.321-2.912-1.57 0-5.185-.773-6.338.716-1.525 1.965-1.259 3.989-1.259 6.408 0 3.574-.068 7.141-.12 10.713-.039 2.691-.067 5.188 2.348 6.725 1.2.764 4.271.66 5.646.281 2.731-.752 2.52-4.219 2.559-6.393.067-3.843-.121-7.711-.121-11.56zm-9.917-11.021c1.794 1.364 4.196 2.405 6.368 1.122 2.533-1.497 3.32-3.68 3.52-6.504.145-2.06-.082-4.901-2.477-5.56l-.349-.092-.245-.158c-.564-.333-1.285-.444-1.92-.54-1.175-.174-2.279-.163-3.453-.007-1.933.261-3.529 3.32-3.738 5.017-.195 1.594.188 3.11 1.099 4.307-.109.932.4 1.81 1.195 2.415zm1.134-4.571c-.018-.107-.011-.268.057-.425l.035.217v.209l-.092-.001zm.065-.442l.004-.007.203.295-.207-.288zm-.032-.055l-.001-.001.001.001zm33.034 3.208c0-3.559-3.031-4.048-5.969-4.048-4.336 0-8.712.171-13.042-.041-1.835-.091-4.049.796-4.65 2.458-.554.389-1.132 1.015-1.132 1.897v4.553c0 1.166.949 1.961 1.979 2.354 1.584.605 3.638.678 5.6.569-.067 5.289-.401 10.322-.954 15.605-.456 4.354.106 7.592 4.994 7.77.187.006.36-.01.53-.018 1.558.252 3.174-.164 4.477-1.047 2.312-1.566 1.678-5.486 1.888-7.844.419-4.703 1.843-9.822 1.547-14.707 1.21-.059 2.338-.278 3.252-.841 2.052-1.265 1.48-4.66 1.48-6.66zm27.599 24.582c-.375-.441-.771-.883-1.174-1.322-.828-2.754-2.382-5.279-4.057-7.566-.182-.248-.361-.461-.543-.658 1.838-1.494 3.261-3.342 3.528-5.736.526-4.701-.938-8.177-5.259-10.357-2.141-1.08-4.758-1.369-7.126-1.369h-3.534c-1.485 0-3.139.823-4.589.598-1.413-.218-2.448.65-2.864 1.706-.609.538-.997 1.341-.838 2.338.861 5.404-.322 11.204-.36 16.637-.019 2.539-1.663 8.854.593 10.828 1.958 1.711 5.246 1.877 7.544.529 2.943-1.725 2.167-6.906 2.054-9.873.685.867 1.368 1.73 1.938 2.711 1.12 1.922 2.442 3.957 3.896 5.645 2.273 2.641 5.23 3.65 8.64 2.809 3.361-.83 4.517-4.143 2.151-6.92zm-16.607-12.194c.004-1.148-.006-2.292-.037-3.434l1.445-.076c.929-.047 2.908-.474 3.312.679.239.677-2.675 2.071-4.72 2.831zm29.687-7.881c-2-1.768-6.156-2.014-8.709-1.313-3.632 1-2.217 6.211-2.072 8.742.166 2.896-.067 5.865.383 8.691-.045 1.062-.091 2.131-.115 3.217-.082 3.541.095 5.795 4.027 6.201 3.132.324 5.717-.164 6.676-3.426.473-1.605.322-3.576.658-5.262.438-2.189.305-4.568.307-6.789.004-2.585 1.132-8.04-1.155-10.061zm-4.405-3.377c2.334-1.197 3.755-3.593 4.009-6.164.278-2.807-.895-5.02-3.527-6.073-1.135-.456-2.592-1.527-3.889-1.384-1.619.18-2.72.813-3.691 2.132-.251.343-.449.727-.621 1.132-1.369 1.026-1.779 2.903-1.358 4.92.093.444.319.816.618 1.124-.26.93.005 1.957 1.135 2.535 1.137.581 1.966 1.545 3.242 1.946 1.36.425 2.779.502 4.082-.168zm33.566 2.183c0-2.969.03-7.255-4.069-7.255-2.533 0-7.635-.86-7.849 3.014-.255.47-.362 1.044-.204 1.705.577 2.43-.246 4.804-.352 7.228-2.389-1.76-3.586-4.012-5.605-6.076-.707-.721-1.95-.886-2.871-.447-1.64-.017-3.868-.106-4.783 1.524-1.434 2.552-1.195 5.685-1.128 8.518.094 3.945 0 7.902 0 11.847 0 2.139-.387 4.426 1.238 6.049 1.138 1.137 3.905 1.16 5.28.533 2.058-.938 2.475-2.789 2.465-4.9-.009-1.83-.009-3.66-.014-5.49 2.07 2.379 3.609 5.018 5.475 7.846 1.691 2.57 6.083 3.111 8.895 2.309 4.418-1.258 2.98-7.059 2.98-10.596l.542-15.809zm12.38 3.023c2.781-.633 5.77.158 8.555-.481.816-.187 1.488-.913 1.705-1.706 1.064-3.902-.789-5.978-4.579-5.978-4.009 0-9.67-.473-13.216 1.577-3.603 2.081-3.967 8.12-4.016 11.691-.07 5.285.152 10.572.864 15.796.085.615.341 1.051.688 1.34.427.836 1.184 1.414 2.19 1.414 2.93 0 5.813-.133 8.729-.4 2.134-.195 6.378.35 8.013-1.438 2.383-2.602 1.434-6.811-2.294-7.113-1.193-.096-2.509.061-3.71.061-1.338 0-3.535-.689-3.407.838-.128-1.535-.212-3.053-.27-4.566l.621-.088c.695-.041 1.383-.117 2.081-.143 1.175-.045 2.309-.121 3.484-.072 2.395.098 3.887-1.676 3.724-3.984-.191-2.722-1.956-3.849-4.534-3.849-1.441 0-2.878-.012-4.318-.061-.385-.012-.766-.01-1.146.004.004-.559.022-1.115.096-1.662.085-.62.037-.947-.037-1.116.147.028.386.025.777-.064z" fill="#FFE000"/><g stroke="#fc0" stroke-linecap="round" stroke-linejoin="round" stroke-miterlimit="10" fill="none"><circle cx="26.271" cy="27" r="24.997"/><path d="M4.232 15.833l12.012 4.375-12.012-4.375z"/><path opacity=".3" d="M4.232 15.833l12.012 4.375-12.012-4.375z"/><path d="M3.938 15.761l-.028.056-.01.029.038-.085z"/><path opacity=".3" d="M3.938 15.761l-.028.056-.01.029.038-.085z"/><path d="M33.198 17.983l-.106-.05.106.05z"/><path opacity=".7" d="M33.198 17.983l-.106-.05.106.05z"/><path opacity=".3" d="M33.198 17.983l-.106-.05.106.05z"/><path d="M41.419 21.902l-.001-.002v.001l-.064-.031z"/><path opacity=".3" d="M41.419 21.902l-.001-.002v.001l-.064-.031z"/><path d="M32.443 29.377l13.844 5.748-13.195-17.192zm0 0l-.623 10.959 14.467-5.211zm0 0l-22.442 7.863 21.819 3.096zm0 0l.649-11.444-23.091 19.307zm-16.199-9.169l16.848-2.275-17.597-13.495h-.001zm-12.012-4.375l12.012 4.375-.75-15.77c-4.982 2.384-9.052 6.371-11.542 11.294l.136.049.144.052zm42.055 19.292l-14.467 5.211-.442 7.408.065.031zm0 0l-14.843 12.65 4.614 2.236c2.749-1.172 5.246-2.822 7.386-4.846l2.843-10.04zm-2.845-9.809s-1.109-1.354-2.023-3.415l-.065-.032-8.156-3.887-.105-.05 13.194 17.192 2.34 3.068c.663-1.32 1.212-2.711 1.634-4.154l-6.819-8.722zm-11.622 15.02l-21.819-3.096 12.768 6.33 8.609 4.174zm1.272-22.403l.105.05 8.156 3.887.064.031v-.001c-1.461-3.295-2.423-8.396 2.456-12.648-.639-.633-1.311-1.232-2.014-1.794l-8.767 10.475zm12.943.568l2.902-2.054c-1.255-2.694-2.977-5.127-5.062-7.195-.012.041-1.44 4.726 2.16 9.249zm-2.592 26.665c2.108-1.994 3.869-4.352 5.184-6.973l-2.34-3.068-2.844 10.041zm-1.92-23.266v.001c1.006 2.06 1.971 3.415 1.971 3.415l6.793 8.723c.365-1.246.624-2.535.792-3.855.132-1.043.194-2.105.194-3.184 0-.669-.029-1.332-.082-1.987l-5.157-6.512c-3.6-4.523-2.172-9.208-2.16-9.249h.051c-4.878 4.252-4.415 9.353-2.402 12.648zm4.512-3.399l5.155 6.512c-.239-3.042-1.023-5.928-2.253-8.565l-2.902 2.053zm-17.62-12.6c6.793 5.355 4.678 12.032 4.678 12.032l8.769-10.474c-4.276-3.416-9.694-5.459-15.591-5.459-3.036 0-5.945.542-8.637 1.533 2.373-.701 6.441-1.054 10.781 2.368zm4.677 12.032s2.116-6.676-4.678-12.032c-4.339-3.421-8.407-3.069-10.78-2.368-.73.269-1.444.572-2.14.905l17.598 13.495zm-16.848 2.275l-3.045 8.312-3.197 8.721 3.197-8.721c1.115-.791 1.966-1.679 2.314-2.21 2.38-3.633 5.96-7.691 13.603-5.061l-19.115 15.991 23.091-19.308-16.848 2.276zm-.732 6.102c-.348.531-1.199 1.419-2.314 2.21l-3.197 8.721 19.114-15.991c-7.643-2.632-11.222 1.426-13.603 5.06zm10.759 25.69c3.473 0 6.78-.709 9.786-1.988l-4.614-2.236-.065-.031-8.61-4.174s-9.791 6.4-17.274-2.668c4.485 6.691 12.116 11.097 20.777 11.097zm-18.058-21.865c1.812.283 3.62-.586 5.07-1.615l3.003-8.312-12.033-4.375.016-.053.023-.049v.001l3.921 14.403zm4.985-1.615c-1.45 1.029-3.344 1.898-5.155 1.615l1.958 7.105 3.197-8.72zm-8.837-1.332c1.037 1.889 2.337 2.736 3.682 2.947l-4.091-14.402-.014.028-.038.085c-.907 2.554-1.875 7.087.461 11.342zm3.682 2.947c-1.345-.211-2.645-1.059-3.682-2.947-2.336-4.255-1.368-8.788-.461-11.342l.01-.029c-1.685 3.365-2.636 7.162-2.636 11.183 0 .646.024 1.289.073 1.924.335 4.408 1.815 8.498 4.142 11.973l4.512-3.656-1.958-7.106zm14.726 13.435l-12.768-6.33-4.512 3.656.005.006c7.484 9.069 17.275 2.668 17.275 2.668z"/></g></svg>